<?xml version="1.0" encoding="UTF-8" standalone="no"?><!-- Generator: Gravit.io --><svg xmlns="http://www.w3.org/2000/svg" xmlns:xlink="http://www.w3.org/1999/xlink" style="isolation:isolate" viewBox="165.124 308.999 30 28.888" width="30pt" height="28.888pt"><g><path d=" M 194.623 320.434 L 194.583 320.326 L 190.5 309.676 C 190.417 309.467 190.27 309.29 190.08 309.17 C 189.792 308.985 189.434 308.948 189.115 309.07 C 188.796 309.191 188.553 309.457 188.46 309.786 L 185.704 318.223 L 174.544 318.223 L 171.788 309.786 C 171.695 309.458 171.452 309.193 171.133 309.071 C 170.814 308.95 170.456 308.986 170.168 309.17 C 169.978 309.29 169.831 309.467 169.748 309.676 L 165.668 320.328 L 165.625 320.434 C 164.418 323.589 165.444 327.161 168.14 329.195 L 168.156 329.206 L 168.19 329.233 L 174.401 333.888 L 177.483 336.217 L 179.355 337.632 C 179.806 337.973 180.429 337.973 180.88 337.632 L 182.752 336.217 L 185.833 333.888 L 192.089 329.206 L 192.106 329.193 C 194.802 327.16 195.829 323.588 194.623 320.434 L 194.623 320.434 Z " fill="rgb(0,0,0)"/><path d=" M 194.623 320.434 L 194.583 320.326 C 192.593 320.734 190.719 321.578 189.094 322.795 L 180.129 329.574 L 185.837 333.888 L 192.092 329.206 L 192.11 329.193 C 194.805 327.159 195.83 323.588 194.623 320.434 L 194.623 320.434 Z " fill="rgb(102,102,102)"/><path d=" M 174.401 333.888 L 177.483 336.217 L 179.355 337.632 C 179.806 337.973 180.429 337.973 180.88 337.632 L 182.752 336.217 L 185.833 333.888 L 180.125 329.574 L 174.401 333.888 Z " fill="rgb(159,159,159)"/><path d=" M 171.154 322.795 C 169.53 321.578 167.656 320.736 165.668 320.328 L 165.625 320.434 C 164.418 323.589 165.444 327.161 168.14 329.195 L 168.156 329.206 L 168.19 329.233 L 174.401 333.888 L 180.114 329.574 L 171.154 322.795 Z " fill="rgb(102,102,102)"/></g></svg>