<?xml version="1.0" encoding="UTF-8" standalone="no"?><!-- Generator: Gravit.io --><svg xmlns="http://www.w3.org/2000/svg" xmlns:xlink="http://www.w3.org/1999/xlink" style="isolation:isolate" viewBox="384 284.916 30 23.223" width="30pt" height="23.223pt"><g><path d=" M 409.413 286.86 C 407.471 285.952 405.394 285.292 403.224 284.916 C 402.957 285.398 402.646 286.046 402.431 286.562 C 400.123 286.215 397.837 286.215 395.571 286.562 C 395.357 286.046 395.038 285.398 394.769 284.916 C 392.596 285.292 390.517 285.954 388.575 286.865 C 384.658 292.784 383.596 298.556 384.127 304.246 C 386.725 306.186 389.243 307.365 391.718 308.136 C 392.329 307.295 392.874 306.401 393.344 305.459 C 392.45 305.119 391.593 304.699 390.784 304.213 C 390.999 304.053 391.209 303.887 391.411 303.716 C 396.348 306.025 401.711 306.025 406.588 303.716 C 406.794 303.887 407.004 304.053 407.216 304.213 C 406.404 304.702 405.545 305.121 404.651 305.461 C 405.121 306.401 405.663 307.297 406.277 308.138 C 408.755 307.367 411.275 306.189 413.872 304.246 C 414.495 297.65 412.808 291.931 409.413 286.86 Z  M 394.016 300.747 C 392.535 300.747 391.319 299.364 391.319 297.679 C 391.319 295.994 392.509 294.609 394.016 294.609 C 395.524 294.609 396.739 295.992 396.713 297.679 C 396.716 299.364 395.524 300.747 394.016 300.747 Z  M 403.983 300.747 C 402.502 300.747 401.286 299.364 401.286 297.679 C 401.286 295.994 402.476 294.609 403.983 294.609 C 405.491 294.609 406.706 295.992 406.68 297.679 C 406.68 299.364 405.491 300.747 403.983 300.747 Z " fill="rgb(0,0,0)"/></g></svg>