<?xml version="1.0" encoding="UTF-8" standalone="no"?>
<svg
   width="71.418"
   height="15.556"
   viewBox="0 0 71.418 15.556"
   svg-inline=""
   src="@images/logo/asus-logo.svg"
   alt="asus"
   role="none"
   focusable="false"
   version="1.1"
   id="svg32"
   sodipodi:docname="asus-logo.svg"
   inkscape:version="1.2.2 (b0a8486541, 2022-12-01)"
   xmlns:inkscape="http://www.inkscape.org/namespaces/inkscape"
   xmlns:sodipodi="http://sodipodi.sourceforge.net/DTD/sodipodi-0.dtd"
   xmlns="http://www.w3.org/2000/svg"
   xmlns:svg="http://www.w3.org/2000/svg">
  <defs
     id="defs36" />
  <sodipodi:namedview
     id="namedview34"
     pagecolor="#ffffff"
     bordercolor="#000000"
     borderopacity="0.25"
     inkscape:showpageshadow="2"
     inkscape:pageopacity="0.0"
     inkscape:pagecheckerboard="0"
     inkscape:deskcolor="#d1d1d1"
     showgrid="false"
     inkscape:zoom="22.50133"
     inkscape:cx="34.73128"
     inkscape:cy="7.8439806"
     inkscape:window-width="1920"
     inkscape:window-height="1001"
     inkscape:window-x="0"
     inkscape:window-y="0"
     inkscape:window-maximized="1"
     inkscape:current-layer="svg32" />
  <g
     data-name="组件 69 – 1"
     id="g30"
     style="fill:#797979;fill-opacity:1">
    <path
       fill="#797979"
       stroke="rgba(0,0,0,0)"
       stroke-miterlimit="10"
       d="M52.803 15.056l.009-3.84h13.593a1.609 1.609 0 00.649-.183.818.818 0 00.256-.578c0-.737-.613-.769-.921-.785l-9.882-.815A4.615 4.615 0 0154.3 7.812a3.758 3.758 0 01-1.271-2.052s12.766.746 14.184.877a4.359 4.359 0 013.618 3.351 6.077 6.077 0 01-.022 1.57 4.233 4.233 0 01-4.008 3.5zm-12.767-.017l-.354-.025a4.216 4.216 0 01-3.621-3.534v-.609a5.825 5.825 0 01-.077.656 4.261 4.261 0 01-3.52 3.5h-18.3v-9.8l3.8.276v5.738h13.688a.768.768 0 00.807-.74c.007-.738-.562-.814-.864-.828 0 0-9.444-.774-9.782-.806a4.988 4.988 0 01-2.284-1.074 3.976 3.976 0 01-1.2-2.258s12.694 1 14.119 1.129c2.392.221 3.494 2.753 3.59 3.327 0 0 .008.059.015.164V4.642l3.881.278v5.078a1.23 1.23 0 001.119 1.273h6.6a1.264 1.264 0 001.267-1.285v-4.46l3.843.227v5.358c0 3.627-3.817 3.931-3.817 3.931zM.918 15.021L7.651 4.597l4.341.458-6.472 9.966zM52.803 4.363v-.311a5.491 5.491 0 01.973-2A4.27 4.27 0 0156.918.5h14v3.866zm-3.937 0V.519h3.909v3.844zm-12.844 0V.519h3.912v3.844zm-28.216 0s1.589-2.59 1.983-3.1a1.682 1.682 0 011.4-.738h6.946v3.527a5.5 5.5 0 01.977-2A4.252 4.252 0 0122.253.496h13.086v3.863z"
       data-name="联合 1"
       id="path28"
       style="fill:#797979;fill-opacity:1" />
  </g>
</svg>
